<?xml version="1.0" encoding="UTF-8"?>
<svg width="124px" height="30px" viewBox="0 0 124 30" version="1.1" xmlns="http://www.w3.org/2000/svg" xmlns:xlink="http://www.w3.org/1999/xlink">
    <!-- Generator: Sketch 55.1 (78136) - https://sketchapp.com -->
    <title>Logo</title>
    <desc>Created with Sketch.</desc>
    <defs>
        <linearGradient x1="2.22044605e-14%" y1="99.4711901%" x2="100%" y2="0.528809914%" id="linearGradient-1">
            <stop stop-color="#00A8FC" offset="0%"></stop>
            <stop stop-color="#00F09E" offset="100%"></stop>
        </linearGradient>
    </defs>
    <g id="Pieces-(Desktop)" stroke="none" stroke-width="1" fill="none" fill-rule="evenodd">
        <g id="Desktop/Other/Header-Light" transform="translate(-80.000000, -25.000000)" fill-rule="nonzero">
            <g id="Logo" transform="translate(80.000000, 25.000000)">
                <path d="M113.571345,21.880102 L117.368121,17.2117347 L113.800989,12.8341837 C113.624929,12.6352041 113.533071,12.4285714 113.533071,12.2066327 C113.533071,11.7091837 113.892846,11.3954082 114.344479,11.3954082 C114.68129,11.3954082 114.903279,11.5561224 115.109958,11.8010204 L118.455101,16.0408163 L121.77728,11.8239796 C121.976305,11.5790816 122.205948,11.3954082 122.519795,11.3954082 C122.971427,11.3954082 123.308238,11.7321429 123.308238,12.1836735 C123.308238,12.4056122 123.216381,12.5892857 123.086249,12.7423469 L119.473188,17.1658163 L123.247,21.7882653 C123.40775,21.9872449 123.491953,22.1938776 123.491953,22.4158163 C123.491953,22.8903061 123.132178,23.2270408 122.680545,23.2270408 C122.343735,23.2270408 122.121746,23.0663265 121.915066,22.8214286 L118.386208,18.3596939 L114.880314,22.7984694 C114.68129,23.0433673 114.451646,23.2270408 114.1378,23.2270408 C113.686167,23.2270408 113.349356,22.8673469 113.349356,22.4387755 C113.349356,22.2168367 113.418249,22.0331633 113.571345,21.880102 Z M100.734262,17.3647959 L100.734262,17.3188776 C100.734262,14.0433673 103.290962,11.2576531 106.796856,11.2576531 C110.279785,11.2576531 112.836485,13.997449 112.836485,17.2729592 L112.836485,17.3188776 C112.836485,20.5943878 110.256821,23.380102 106.750927,23.380102 C103.267997,23.380102 100.734262,20.6403061 100.734262,17.3647959 Z M111.060574,17.3647959 L111.060574,17.3188776 C111.060574,14.8316327 109.192805,12.7882653 106.750927,12.7882653 C104.232501,12.7882653 102.510173,14.8316327 102.510173,17.2729592 L102.510173,17.3188776 C102.510173,19.8061224 104.347323,21.8265523 106.796856,21.8265523 C109.307627,21.8341837 111.060574,19.8137755 111.060574,17.3647959 Z M87.8895238,7.49234694 C87.8895238,6.99489796 88.2722633,6.61989796 88.7392055,6.61989796 C89.2367669,6.61989796 89.6118516,7.00255102 89.6118516,7.49234694 L89.6118516,13.8443878 C90.5533908,12.4515306 91.9235983,11.2653061 94.0592848,11.2653061 C96.8456284,11.2653061 99.6090077,13.4617347 99.6090077,17.2806122 L99.6090077,17.3265306 C99.6090077,21.1147959 96.8685928,23.3647959 94.0592848,23.3647959 C91.9006339,23.3647959 90.5074621,22.2015306 89.6118516,20.8928571 L89.6118516,22.3469388 C89.6118516,22.8214286 89.2520765,23.2193878 88.7621699,23.2193878 C88.2722633,23.2193878 87.8895238,22.8137755 87.8895238,22.3469388 L87.8895238,7.49234694 Z M97.8330963,17.3418367 L97.8330963,17.2959184 C97.8330963,14.5561224 95.9500179,12.8112245 93.7454384,12.8112245 C91.5867875,12.8112245 89.5429585,14.625 89.5429585,17.2729592 L89.5429585,17.3188776 C89.5429585,20.0127551 91.5867875,21.8035978 93.7454384,21.8035978 C95.9959467,21.8112245 97.8330963,20.1505102 97.8330963,17.3418367 Z M72.8019323,22.5076531 L69.273074,12.7040816 C69.2271453,12.5663265 69.1582522,12.3903061 69.1582522,12.2295918 C69.1582522,11.8010204 69.5180273,11.4030612 70.0308982,11.4030612 C70.4825309,11.4030612 70.7734129,11.6938776 70.9035443,12.122449 L73.8200194,20.8316327 L76.7594588,12.1071429 C76.8972451,11.7015306 77.1651627,11.4107143 77.6091406,11.4107143 L77.700998,11.4107143 C78.175595,11.4107143 78.4664771,11.7015306 78.5966085,12.1071429 L81.5130836,20.8316327 L84.4754874,12.0841837 C84.5903092,11.7244898 84.8352625,11.4107143 85.3098595,11.4107143 C85.8074209,11.4107143 86.1595412,11.7933673 86.1595412,12.2219388 C86.1595412,12.375 86.0906481,12.5586735 86.0447194,12.6964286 L82.5235159,22.5076531 C82.3474557,23.0204082 81.9876806,23.2959184 81.5819767,23.2959184 L81.5130836,23.2959184 C81.061451,23.2959184 80.7246402,23.0280612 80.5715444,22.5076531 L77.6780337,14.0510204 L74.7615586,22.5076531 C74.6084628,23.0204082 74.2639972,23.2959184 73.8200194,23.2959184 L73.7740907,23.2959184 C73.3377676,23.2882653 72.9779925,23.0204082 72.8019323,22.5076531 Z M56.5661222,17.3647959 L56.5661222,17.3188776 C56.5661222,14.0433673 59.1228222,11.2576531 62.6287161,11.2576531 C66.1116456,11.2576531 68.6683456,13.997449 68.6683456,17.2729592 L68.6683456,17.3188776 C68.6683456,20.5943878 66.0886813,23.380102 62.5827874,23.380102 C59.1075126,23.380102 56.5661222,20.6403061 56.5661222,17.3647959 Z M66.900089,17.3647959 L66.900089,17.3188776 C66.900089,14.8316327 65.039975,12.7882653 62.5904421,12.7882653 C60.0720162,12.7882653 58.3496884,14.8316327 58.3496884,17.2729592 L58.3496884,17.3188776 C58.3496884,19.8061224 60.186838,21.8265523 62.6363709,21.8265523 C65.1471421,21.8341837 66.900089,19.8137755 66.900089,17.3647959 Z M52.8841681,7.49234694 C52.8841681,7.01785714 53.2669077,6.61989796 53.7338499,6.61989796 C54.2314112,6.61989796 54.6064959,7.0255102 54.6064959,7.49234694 L54.6064959,22.3469388 C54.6064959,22.8367347 54.2467208,23.2193878 53.7568142,23.2193878 C53.2669077,23.2193878 52.8841681,22.8367347 52.8841681,22.3469388 L52.8841681,7.49234694 Z M39.6413811,7.57653061 C39.6413811,7.07908163 40.0470849,6.68112245 40.5140271,6.68112245 L50.2356107,6.68112245 C50.6872433,6.68112245 51.0470185,7.04081633 51.0470185,7.49234694 C51.0470185,7.94387755 50.6872433,8.32653061 50.2356107,8.32653061 L41.4172924,8.32653061 L41.4172924,14.2117347 L49.2251784,14.2117347 C49.676811,14.2117347 50.0365862,14.5714286 50.0365862,15.0229592 C50.0365862,15.4744898 49.676811,15.8341837 49.2251784,15.8341837 L41.4172924,15.8341837 L41.4172924,22.3392857 C41.4172924,22.8290816 41.0115885,23.2346939 40.5216819,23.2346939 C40.0470849,23.2346939 39.6490358,22.8290816 39.6490358,22.3392857 L39.6490358,7.57653061 L39.6413811,7.57653061 Z" id="TEXT" fill="#243342"></path>
                <path d="M14.1001236,13.5918367 L13.6561458,16.4081633 L16.0444403,16.4081633 L16.4884181,13.5918367 L14.1001236,13.5918367 L14.1001236,13.5918367 Z M17.2003136,10.9591837 L17.5677436,9.01530612 C17.659601,8.39540816 18.2337103,7.95153061 18.8843675,7.9744898 C19.2441426,7.9744898 19.5886082,8.11989796 19.8412163,8.37244898 C20.0861695,8.625 20.2239558,8.95408163 20.2086462,9.29846939 L20.2086462,9.43622449 L19.9177642,10.9668367 L20.3540872,10.9668367 C20.7062076,10.9668367 21.0430183,11.0969388 21.2879716,11.3341837 C21.5329249,11.5714286 21.6707111,11.8852041 21.6707111,12.2219388 C21.640092,12.9107143 21.0736375,13.4770408 20.3540872,13.5382653 L20.3540872,13.5459184 L19.4048932,13.5459184 L18.8920223,16.4693878 L19.6268821,16.4693878 C20.3540872,16.4693878 20.9511608,17.0280612 20.9511608,17.7244898 C20.9511608,18.4209184 20.361742,18.9795918 19.6268821,18.9795918 L18.4480444,18.9795918 L18.0806145,20.9923469 C17.988757,21.6122449 17.4146478,22.0561224 16.7639906,22.0331633 C16.0214759,22.002551 15.4397119,21.4209184 15.4473667,20.7168367 L15.4473667,20.5790816 L15.7382487,18.9107143 L12.9519051,18.9107143 L12.5844751,20.9234694 C12.5308916,21.3673469 12.2323548,21.7576531 11.7960317,21.9336735 C11.3597087,22.1173469 10.8621473,22.0637755 10.4794078,21.7959184 C10.0966683,21.5280612 9.89764376,21.0918367 9.9435725,20.6403061 L9.9435725,20.502551 L10.2344545,18.9030612 L9.79813149,18.9030612 C9.07092642,18.9030612 8.47385278,18.3443878 8.47385278,17.6479592 C8.47385278,16.9591837 9.06327163,16.3928571 9.79813149,16.3928571 L10.7473255,16.3928571 L11.2601964,13.4693878 L10.5253366,13.4693878 C9.79813149,13.4693878 9.20105785,12.9107143 9.20105785,12.2142857 C9.20105785,11.5255102 9.7904767,10.9591837 10.5253366,10.9591837 L11.6965195,10.9591837 L12.0639494,9.01530612 C12.1558069,8.39540816 12.7299161,7.95153061 13.3805733,7.9744898 C13.7403485,7.9744898 14.084814,8.11989796 14.3374221,8.37244898 C14.5823754,8.625 14.7201616,8.95408163 14.704852,9.29846939 L14.704852,9.43622449 L14.41397,10.9668367 L17.2003136,10.9668367 L17.2003136,10.9591837 Z M15.072282,1.42108547e-14 C6.75152498,1.42108547e-14 -4.26325641e-14,6.71938776 -4.26325641e-14,15 C-4.26325641e-14,17.7397959 0.734859862,20.3035714 2.02851941,22.5153061 L1.01043231,28.997449 L7.52465879,27.9795918 C9.74454796,29.2653061 12.3242123,29.9923469 15.0799367,29.9923469 C23.4083485,29.9923469 30.1522187,23.2729592 30.1522187,14.9923469 C30.1522187,11.005102 28.5906415,7.37755102 26.0339416,4.69132653 C23.2858719,1.80612245 19.3895836,1.42108547e-14 15.072282,1.42108547e-14 Z" id="LOGO" fill="url(#linearGradient-1)"></path>
            </g>
        </g>
    </g>
</svg>